<?xml version="1.0" encoding="UTF-8" standalone="no"?>
<!-- Created with Inkscape (http://www.inkscape.org/) -->

<svg
   xmlns:dc="http://purl.org/dc/elements/1.1/"
   xmlns:cc="http://creativecommons.org/ns#"
   xmlns:rdf="http://www.w3.org/1999/02/22-rdf-syntax-ns#"
   xmlns:svg="http://www.w3.org/2000/svg"
   xmlns="http://www.w3.org/2000/svg"
   xmlns:sodipodi="http://sodipodi.sourceforge.net/DTD/sodipodi-0.dtd"
   xmlns:inkscape="http://www.inkscape.org/namespaces/inkscape"
   width="256"
   height="96"
   viewBox="0 0 256 96"
   id="svg3410"
   version="1.1"
   inkscape:version="0.91 r"
   sodipodi:docname="logo.svg"
   inkscape:export-filename="/home/alexem/Projects/dev/prototype/qoolejs/src/assets/logo.png"
   inkscape:export-xdpi="90"
   inkscape:export-ydpi="90">
  <defs
     id="defs3412" />
  <sodipodi:namedview
     id="base"
     pagecolor="#ffffff"
     bordercolor="#666666"
     borderopacity="1.0"
     inkscape:pageopacity="0.0"
     inkscape:pageshadow="2"
     inkscape:zoom="2.8"
     inkscape:cx="150.40301"
     inkscape:cy="60.377113"
     inkscape:document-units="px"
     inkscape:current-layer="layer2"
     showgrid="false"
     units="px"
     inkscape:window-width="1366"
     inkscape:window-height="638"
     inkscape:window-x="0"
     inkscape:window-y="33"
     inkscape:window-maximized="1" />
  <metadata
     id="metadata3415">
    <rdf:RDF>
      <cc:Work
         rdf:about="">
        <dc:format>image/svg+xml</dc:format>
        <dc:type
           rdf:resource="http://purl.org/dc/dcmitype/StillImage" />
        <dc:title></dc:title>
      </cc:Work>
    </rdf:RDF>
  </metadata>
  <g
     inkscape:label="Layer 1"
     inkscape:groupmode="layer"
     id="layer1"
     transform="translate(0,-956.36216)"
     style="display:inline">
    <path
       style="fill:#162d50;fill-opacity:1;stroke:#afc6e9;stroke-width:1.06487954;stroke-miterlimit:4;stroke-dasharray:none;stroke-dashoffset:0"
       d="m 36.096415,977.8466 c -12.864284,1.53168 -27.7702408,9.5681 -28.9144698,23.8563 -1.8340984,9.7696 -1.7058495,23.0644 8.5510418,28.1612 12.289031,1.1123 28.010256,-1.1327 34.048461,-13.3527 2.866083,-7.5217 2.387724,-19.09318 -7.043843,-21.48379 -2.398181,-0.5597 -0.788288,5.35579 0.266554,7.15919 4.384682,8.0431 0.250895,19.4822 -9.243288,21.1693 -6.844918,3.622 -19.110864,3.81 -20.36343,-5.9609 -3.281734,-12.4751 1.225217,-29.4604 15.305185,-32.65979 5.056706,-1.432 10.47965,-2.38988 14.417259,-6.29965 -2.331221,-0.12775 -4.697457,-0.93444 -7.02347,-0.58916 z"
       id="path3458"
       inkscape:connector-curvature="0" />
    <path
       style="fill:#162d50;fill-opacity:1;stroke:#afc6e9;stroke-width:1.06487954;stroke-miterlimit:4;stroke-dasharray:none;stroke-dashoffset:0"
       d="m 27.905175,1012.2338 c -3.989105,4.1245 2.2455,7.7949 4.957247,10.1985 7.315254,7.0932 14.069565,16.314 25.156558,17.2999 -8.408727,-10.716 -19.7027,-18.7026 -28.521006,-29.0764 -0.530933,0.526 -1.061866,1.052 -1.592799,1.578 z"
       id="path3460"
       inkscape:connector-curvature="0" />
    <path
       style="fill:#162d50;fill-opacity:1;stroke:#afc6e9;stroke-width:1.06487954;stroke-miterlimit:4;stroke-dasharray:none;stroke-dashoffset:0"
       d="m 77.204116,1006.174 c -4.124109,1.0296 -1.9743,5.4328 0.03367,7.2255 2.722112,5.7622 -5.765369,11.7635 -9.615714,5.9799 -2.957736,-2.6506 -2.19929,-6.8526 0.420819,-9.3212 -0.315832,-5.4735 -7.512808,-1.3587 -8.184929,2.0788 -3.586699,7.9982 5.788692,14.811 13.13376,14.4194 11.220693,1.4449 15.031151,-16.481 5.142408,-20.7022 l -0.93001,0.3198 z"
       id="path3462"
       inkscape:connector-curvature="0" />
    <path
       style="fill:#162d50;fill-opacity:1;stroke:#afc6e9;stroke-width:1.06487954;stroke-miterlimit:4;stroke-dasharray:none;stroke-dashoffset:0"
       d="m 101.42014,1002.8454 c -10.566822,0.1294 -18.37292,15.4195 -9.438967,22.6442 7.45742,7.398 19.766347,-0.071 21.322897,-9.1171 1.23196,-4.8714 -1.82905,-11.8723 -7.14551,-12.2268 -3.01759,1.8588 2.18869,-2.6828 -4.73842,-1.3003 z m 2.89313,3.6948 c 0.88515,3.8908 4.4392,7.4411 1.84529,11.7471 -1.21946,6.0132 -9.897501,6.5697 -11.307401,0.4103 -2.769035,-7.1215 5.728521,-8.7863 9.493681,-12.37 l -0.0316,0.2126 z"
       id="path3464"
       inkscape:connector-curvature="0" />
    <path
       style="fill:#162d50;fill-opacity:1;stroke:#afc6e9;stroke-width:1.06487954;stroke-miterlimit:4;stroke-dasharray:none;stroke-dashoffset:0"
       d="m 123.70251,987.1993 c -7.13454,7.66808 -0.5204,18.6408 -4.10088,27.4816 -1.67159,8.5699 0.55247,17.4431 5.87673,24.3696 0.17928,-18.85 0.58647,-37.6172 2.43865,-56.41077 -1.40483,1.51986 -2.80967,3.03972 -4.2145,4.55957 z"
       id="path3466"
       inkscape:connector-curvature="0" />
    <path
       style="fill:#162d50;fill-opacity:1;stroke:#afc6e9;stroke-width:1.06487954;stroke-miterlimit:4;stroke-dasharray:none;stroke-dashoffset:0"
       d="m 144.57513,1004.0721 c -6.8491,0.8841 -15.6828,6.2185 -14.00275,14.272 8.78895,6.0488 20.13603,3.9277 30.1282,4.6059 1.22853,-0.4934 -3.70713,-3.9805 -6.17308,-4.7973 -5.26805,-2.8041 -12.212,1.5048 -16.74229,-2.5292 -1.9202,-2.4774 3.94578,-0.4145 4.69845,-0.7069 4.70436,1.4877 12.94325,-2.5195 9.27905,-7.8778 -1.70074,-2.1125 -4.53868,-3.0561 -7.18758,-2.9667 z m -0.53655,5.0056 c 4.08957,0.2001 -0.5301,2.5597 -1.92103,0.4292 0.59143,-0.2618 1.2792,-0.3784 1.92103,-0.4292 z"
       id="path3468"
       inkscape:connector-curvature="0" />
    <path
       style="fill:#162d50;fill-opacity:1;stroke:#afc6e9;stroke-width:1.06487954;stroke-miterlimit:4;stroke-dasharray:none;stroke-dashoffset:0"
       d="m 155.8131,976.91238 c -4.46446,1.01195 -1.4592,6.11708 2.11462,5.65581 11.60057,3.05072 25.01105,4.26773 35.98422,5.27287 -4.81993,10.84899 -0.87137,23.52474 -4.92568,34.07994 -6.56501,0.5265 -12.79566,-5.1646 -19.52077,-1.7863 -6.11448,0.7558 4.43778,3.1418 7.1003,4.4586 5.38843,2.1663 13.15825,5.5624 17.97317,0.9216 5.5724,-12.3033 -1.55222,-27.40426 7.59158,-38.49655 4.29484,-4.12506 1.5221,-5.19481 -2.83212,-5.14661 -7.76086,-0.10504 -15.61742,1.49415 -23.18081,-0.9742 -6.83807,-0.93837 -13.51958,-3.10552 -20.30451,-3.98516 z"
       id="path3470"
       inkscape:connector-curvature="0" />
    <path
       style="fill:#162d50;fill-opacity:1;stroke:#afc6e9;stroke-width:1.06487954;stroke-miterlimit:4;stroke-dasharray:none;stroke-dashoffset:0"
       d="m 241.13415,978.86288 c -7.67344,5.02386 -19.76827,-1.38465 -25.81304,7.14762 -6.58211,7.88861 2.30338,20.71 11.96808,18.0826 9.41994,1.0553 14.05141,18.5129 3.24452,20.9042 -5.91703,2.0761 -12.96246,-1.4845 -13.46199,-7.9093 -1.6645,-3.9277 -9.18163,-3.1823 -7.49479,1.8243 4.52368,13.5433 26.90562,15.6278 32.85965,2.3208 2.14624,-8.8674 -2.44142,-20.6499 -12.694,-21.23881 -4.82755,-0.89879 -13.07989,-4.74666 -9.00554,-10.73508 4.22899,-5.58753 12.92068,-4.28331 17.97108,-0.50498 3.37168,-1.27668 8.14592,-7.5065 3.4949,-9.8177 -0.34739,-0.0991 -0.71149,-0.10775 -1.06887,-0.0737 z"
       id="path3474"
       inkscape:connector-curvature="0" />
  </g>
  <g
     inkscape:groupmode="layer"
     id="layer2"
     inkscape:label="Layer 2"
     style="display:inline">
    <path
       inkscape:connector-curvature="0"
       id="path3537"
       d="M 37.518784,23.479123 C 25.22818,24.833705 10.431131,31.718847 9.3197056,45.618451 7.8726496,54.145899 7.198179,66.607204 16.353694,71.387276 27.286529,72.27346 40.736789,70.526408 47.311241,60.626915 c 2.281466,-5.696744 3.649087,-16.349483 -3.467548,-19.122003 -0.145042,1.529643 2.342773,5.133092 2.474416,7.648364 C 48.667657,57.357859 43.937975,66.6183 35.395631,68.592877 28.180621,72.252345 16.781083,73.604783 12.347497,65.20758 7.9529136,52.414145 10.199121,34.315121 23.650695,27.954536 27.899937,25.958683 34.055822,24.908243 37.518784,23.479123 Z"
       style="fill:#afc6e9;fill-opacity:1;stroke:#afc6e9;stroke-width:1.06487954;stroke-miterlimit:4;stroke-dasharray:none;stroke-dashoffset:0" />
    <path
       inkscape:connector-curvature="0"
       id="path3539"
       d="m 29.422227,57.401382 c -2.790402,2.471964 3.784593,5.286401 4.879396,7.065557 5.882977,5.072343 10.216141,12.1825 17.809058,15.069439 C 44.619855,72.162499 36.339813,65.079382 29.422227,57.401382 Z"
       style="fill:#afc6e9;fill-opacity:1;stroke:#afc6e9;stroke-width:1.06487954;stroke-miterlimit:4;stroke-dasharray:none;stroke-dashoffset:0" />
    <path
       inkscape:connector-curvature="0"
       id="path3541"
       d="m 77.904779,51.848672 c -3.109206,0.96989 1.715686,2.64347 1.498116,4.870996 2.412238,6.25069 -5.136,14.15934 -11.082267,9.588263 -4.506564,-2.618046 -6.970397,-9.055863 -2.499665,-12.954814 0.858675,-1.179425 -3.871972,1.45435 -3.783163,2.821547 -4.071092,8.525833 8.44902,13.799738 15.210502,11.206362 5.451989,-2.686562 6.132379,-12.690984 0.656477,-15.532354 z"
       style="fill:#afc6e9;fill-opacity:1;stroke:#afc6e9;stroke-width:1.06487954;stroke-miterlimit:4;stroke-dasharray:none;stroke-dashoffset:0" />
    <path
       inkscape:connector-curvature="0"
       id="path3543"
       d="m 101.31494,48.654595 c -8.625497,0.622462 -15.412299,12.587995 -7.913502,18.85269 9.005802,8.828768 24.296262,-7.721523 15.242062,-16.264592 -1.89213,-2.267063 -2.8087,-1.562188 -1.65802,0.542849 5.38906,6.034369 -0.18048,19.506609 -8.864561,16.897935 -6.343541,-2.458606 -8.249902,-11.901002 -2.158798,-15.782825 1.633127,-1.859629 6.284029,-2.881553 6.621589,-4.256506 l -0.98682,-0.01293 -0.28195,0.02262 z"
       style="fill:#afc6e9;fill-opacity:1;stroke:#afc6e9;stroke-width:1.06487954;stroke-miterlimit:4;stroke-dasharray:none;stroke-dashoffset:0" />
    <path
       inkscape:connector-curvature="0"
       id="path3545"
       d="m 125.28479,32.299489 c -6.19621,6.459427 -0.20155,16.230032 -3.1793,23.965668 -1.07526,6.196717 -1.57355,13.051232 1.47708,18.776955 -0.27896,-14.264268 0.54229,-28.548897 1.70222,-42.742623 z"
       style="fill:#afc6e9;fill-opacity:1;stroke:#afc6e9;stroke-width:1.06487954;stroke-miterlimit:4;stroke-dasharray:none;stroke-dashoffset:0" />
    <path
       inkscape:connector-curvature="0"
       id="path3547"
       d="m 144.24689,49.889716 c -4.90362,0.881767 -12.62124,5.008782 -11.65458,10.844498 6.43178,4.511287 15.96522,2.754324 23.03352,3.884193 -4.67191,-2.496312 -9.8808,-1.527822 -14.78757,-1.44347 -3.37386,-0.172152 -8.4921,-4.908163 -3.83367,-7.235986 4.48655,-0.336008 11.33276,2.891033 13.74816,-2.716295 -0.88876,-2.519258 -4.06511,-3.57587 -6.50586,-3.33294 z m 0.35769,0.738594 c 3.71112,-0.260274 5.25669,5.342637 0.84796,5.302239 -3.53279,1.397684 -8.51467,-3.338004 -3.54751,-5.032914 0.87698,-0.14619 1.82705,-0.493618 2.69955,-0.269325 z"
       style="fill:#afc6e9;fill-opacity:1;stroke:#afc6e9;stroke-width:1.06487954;stroke-miterlimit:4;stroke-dasharray:none;stroke-dashoffset:0" />
    <path
       inkscape:connector-curvature="0"
       id="path3549"
       d="m 156.38962,22.626971 c -3.63504,0.900081 6.11886,2.063034 8.35106,2.856883 10.78339,2.339715 21.80892,3.508184 32.8429,3.499587 -7.02826,11.605349 -2.30879,25.610829 -6.41959,37.989397 -5.70161,3.174254 -11.50779,-2.783411 -17.23464,-1.933639 5.86449,1.659898 12.80155,6.275791 18.62546,3.274011 3.41066,-7.660332 1.69846,-16.421877 2.64483,-24.512697 -0.58213,-5.93473 3.60168,-11.758207 6.09557,-15.902783 -7.50897,-1.220113 -15.27297,1.830004 -22.70156,-0.822128 -7.48926,-0.994474 -14.85344,-2.851119 -22.20403,-4.448631 z"
       style="fill:#afc6e9;fill-opacity:1;stroke:#afc6e9;stroke-width:1.06487954;stroke-miterlimit:4;stroke-dasharray:none;stroke-dashoffset:0" />
    <path
       inkscape:connector-curvature="0"
       id="path3551"
       d="m 241.14256,24.667942 c -7.3265,5.355101 -19.30849,-1.789131 -24.5611,6.983488 -4.38522,6.608417 2.6383,15.957111 10.18802,13.861769 9.361,0.603286 14.91279,13.139247 10.76034,20.963113 -5.43759,7.504986 -20.95396,6.216109 -22.03828,-4.09879 -0.99917,-2.699921 -5.83308,-3.209266 -3.20033,0.824778 4.67076,10.52271 22.84749,11.64299 28.02654,1.273042 1.53867,-7.509727 -1.21048,-17.646441 -10.10424,-18.498475 -5.40738,-1.342096 -14.48644,-4.284117 -12.49164,-11.579591 2.6014,-8.935442 14.61458,-8.915308 21.14195,-4.466989 0.89526,-0.305779 5.03351,-5.736517 2.27874,-5.262345 z"
       style="fill:#afc6e9;fill-opacity:1;stroke:#afc6e9;stroke-width:1.06487954;stroke-miterlimit:4;stroke-dasharray:none;stroke-dashoffset:0" />
  </g>
</svg>
