<?xml version="1.0" encoding="UTF-8" standalone="no"?>
<!-- Created with Inkscape (http://www.inkscape.org/) -->

<svg
   xmlns:dc="http://purl.org/dc/elements/1.1/"
   xmlns:cc="http://creativecommons.org/ns#"
   xmlns:rdf="http://www.w3.org/1999/02/22-rdf-syntax-ns#"
   xmlns:svg="http://www.w3.org/2000/svg"
   xmlns="http://www.w3.org/2000/svg"
   xmlns:sodipodi="http://sodipodi.sourceforge.net/DTD/sodipodi-0.dtd"
   xmlns:inkscape="http://www.inkscape.org/namespaces/inkscape"
   width="256"
   height="96"
   viewBox="0 0 256 96"
   id="svg3410"
   version="1.1"
   inkscape:version="0.91 r"
   sodipodi:docname="logo.svg"
   inkscape:export-filename="/home/alexem/Projects/dev/prototype/qoolejs/src/assets/logo.png"
   inkscape:export-xdpi="90"
   inkscape:export-ydpi="90">
  <defs
     id="defs3412" />
  <sodipodi:namedview
     id="base"
     pagecolor="#ffffff"
     bordercolor="#666666"
     borderopacity="1.0"
     inkscape:pageopacity="0.0"
     inkscape:pageshadow="2"
     inkscape:zoom="2.8"
     inkscape:cx="143.6173"
     inkscape:cy="53.948541"
     inkscape:document-units="px"
     inkscape:current-layer="layer2"
     showgrid="false"
     units="px"
     inkscape:window-width="1366"
     inkscape:window-height="638"
     inkscape:window-x="0"
     inkscape:window-y="33"
     inkscape:window-maximized="1" />
  <metadata
     id="metadata3415">
    <rdf:RDF>
      <cc:Work
         rdf:about="">
        <dc:format>image/svg+xml</dc:format>
        <dc:type
           rdf:resource="http://purl.org/dc/dcmitype/StillImage" />
        <dc:title></dc:title>
      </cc:Work>
    </rdf:RDF>
  </metadata>
  <g
     inkscape:label="Layer 1"
     inkscape:groupmode="layer"
     id="layer1"
     transform="translate(0,-956.36216)"
     style="display:inline">
    <path
       style="fill:#afc6e9;fill-opacity:1;stroke:#afc6e9;stroke-width:0.98847395;stroke-miterlimit:4;stroke-dasharray:none;stroke-dashoffset:0"
       d="m 42.490234,980.04492 c -11.941266,1.42178 -25.777713,8.88158 -26.839843,22.14458 -1.702501,9.0686 -1.583454,21.4095 7.9375,26.1406 11.407288,1.0325 26.000507,-1.0514 31.605468,-12.3946 2.66044,-6.982 2.216404,-17.72324 -6.538444,-19.94232 -2.22611,-0.51954 -0.731728,4.97152 0.247429,6.64552 4.070079,7.466 0.232893,18.0843 -8.580078,19.6504 -6.353792,3.3621 -17.73965,3.5366 -18.902344,-5.5332 -3.046268,-11.58 1.137307,-27.34662 14.207031,-30.31645 4.693885,-1.32925 9.72773,-2.2184 13.382813,-5.84765 -2.163954,-0.11858 -4.360412,-0.86739 -6.519532,-0.54688 z"
       id="path3458"
       inkscape:connector-curvature="0" />
    <path
       style="fill:#afc6e9;fill-opacity:1;stroke:#afc6e9;stroke-width:0.98847395;stroke-miterlimit:4;stroke-dasharray:none;stroke-dashoffset:0"
       d="m 34.886719,1011.9648 c -3.702885,3.8286 2.084384,7.2356 4.601562,9.4668 6.790381,6.5842 13.060067,15.1434 23.351563,16.0586 -7.805397,-9.9471 -18.289022,-17.3607 -26.47461,-26.9902 -0.492838,0.4883 -0.985677,0.9766 -1.478515,1.4648 z"
       id="path3460"
       inkscape:connector-curvature="0" />
    <path
       style="fill:#afc6e9;fill-opacity:1;stroke:#afc6e9;stroke-width:0.98847395;stroke-miterlimit:4;stroke-dasharray:none;stroke-dashoffset:0"
       d="m 80.648438,1006.3398 c -3.828203,0.9557 -1.832643,5.043 0.03125,6.7071 2.526799,5.3487 -5.351701,10.9194 -8.925782,5.5508 -2.745517,-2.4604 -2.04149,-6.3609 0.390625,-8.6524 -0.293171,-5.0808 -6.97376,-1.2612 -7.597656,1.9297 -3.329352,7.4243 5.37335,13.7483 12.191406,13.3848 10.415603,1.3412 13.952659,-15.2985 4.773438,-19.2168 l -0.863281,0.2968 z"
       id="path3462"
       inkscape:connector-curvature="0" />
    <path
       style="fill:#afc6e9;fill-opacity:1;stroke:#afc6e9;stroke-width:0.98847395;stroke-miterlimit:4;stroke-dasharray:none;stroke-dashoffset:0"
       d="m 103.12695,1003.25 c -9.808647,0.1202 -17.054654,14.3132 -8.761716,21.0195 6.922346,6.8672 18.348106,-0.066 19.792966,-8.4629 1.14357,-4.5219 -1.69781,-11.0205 -6.63281,-11.3496 -2.80108,1.7255 2.03165,-2.4903 -4.39844,-1.207 z m 2.68555,3.4297 c 0.82164,3.6117 4.12068,6.9072 1.71289,10.9043 -1.13197,5.5817 -9.187354,6.0983 -10.496093,0.3808 -2.570356,-6.6105 5.317493,-8.1558 8.812503,-11.4824 l -0.0293,0.1973 z"
       id="path3464"
       inkscape:connector-curvature="0" />
    <path
       style="fill:#afc6e9;fill-opacity:1;stroke:#afc6e9;stroke-width:0.98847395;stroke-miterlimit:4;stroke-dasharray:none;stroke-dashoffset:0"
       d="m 123.81055,988.72656 c -6.62263,7.11789 -0.48306,17.30334 -3.80664,25.50974 -1.55165,7.955 0.51283,16.1916 5.45507,22.6211 0.16642,-17.4975 0.54439,-34.9181 2.26368,-52.36326 -1.30404,1.41081 -2.60808,2.82162 -3.91211,4.23242 z"
       id="path3466"
       inkscape:connector-curvature="0" />
    <path
       style="fill:#afc6e9;fill-opacity:1;stroke:#afc6e9;stroke-width:0.98847395;stroke-miterlimit:4;stroke-dasharray:none;stroke-dashoffset:0"
       d="m 143.18555,1004.3887 c -6.35767,0.8207 -14.55755,5.7723 -12.99805,13.248 8.15834,5.6148 18.69126,3.6459 27.96649,4.2754 1.14038,-0.458 -3.44114,-3.6949 -5.73016,-4.4531 -4.89006,-2.6029 -11.33578,1.3969 -15.54102,-2.3477 -1.78243,-2.2996 3.66267,-0.3848 4.36133,-0.6562 4.36682,1.381 12.01457,-2.3387 8.61328,-7.3125 -1.57871,-1.961 -4.21303,-2.8369 -6.67187,-2.7539 z m -0.49805,4.6465 c 3.79614,0.1857 -0.49207,2.376 -1.7832,0.3984 0.549,-0.243 1.18742,-0.3513 1.7832,-0.3984 z"
       id="path3468"
       inkscape:connector-curvature="0" />
    <path
       style="fill:#afc6e9;fill-opacity:1;stroke:#afc6e9;stroke-width:0.98847395;stroke-miterlimit:4;stroke-dasharray:none;stroke-dashoffset:0"
       d="m 153.61719,979.17773 c -4.14413,0.93934 -1.3545,5.67817 1.96289,5.25 10.76823,2.83183 23.2165,3.96152 33.40234,4.89454 -4.4741,10.07057 -0.80885,21.83683 -4.57226,31.63473 -6.09397,0.4887 -11.87757,-4.7941 -18.12015,-1.6582 -5.67576,0.7016 4.11937,2.9164 6.59085,4.1387 5.00181,2.0109 12.21414,5.1633 16.68359,0.8555 5.17258,-11.4205 -1.44085,-25.438 7.04688,-35.73441 3.98668,-3.82909 1.41289,-4.82208 -2.62891,-4.77734 -7.20402,-0.0975 -14.49687,1.38694 -21.51758,-0.9043 -6.34743,-0.87104 -12.54954,-2.8827 -18.84765,-3.69922 z"
       id="path3470"
       inkscape:connector-curvature="0" />
    <path
       style="fill:#afc6e9;fill-opacity:1;stroke:#afc6e9;stroke-width:0.98847395;stroke-miterlimit:4;stroke-dasharray:none;stroke-dashoffset:0"
       d="m 232.81641,980.98828 c -7.12286,4.66339 -18.34988,-1.2853 -23.96094,6.63477 -6.10984,7.3226 2.13811,19.22405 11.10937,16.78515 8.74405,0.9796 13.04321,17.1846 3.01172,19.4043 -5.49248,1.9272 -12.0324,-1.378 -12.49609,-7.3418 -1.54507,-3.6459 -8.52284,-2.9539 -6.95703,1.6934 4.1991,12.5716 24.97513,14.5065 30.50195,2.1543 1.99225,-8.2311 -2.26624,-19.1682 -11.7832,-19.7149 -4.48117,-0.8343 -12.1414,-4.40609 -8.35938,-9.96483 3.92555,-5.18663 11.99361,-3.97598 16.68164,-0.46875 3.12976,-1.18508 7.56145,-6.96791 3.24414,-9.11328 -0.32246,-0.092 -0.66044,-0.10002 -0.99218,-0.0684 z"
       id="path3474"
       inkscape:connector-curvature="0" />
  </g>
  <g
     inkscape:groupmode="layer"
     id="layer2"
     inkscape:label="Layer 2"
     style="display:inline">
    <path
       inkscape:connector-curvature="0"
       id="path3537"
       d="M 43.810547,25.53432 C 32.4018,26.79171 18.666446,33.18284 17.634766,46.08514 c -1.343229,7.9156 -1.969306,19.4828 6.529296,23.9199 10.148399,0.8226 22.633597,-0.7991 28.736329,-9.9883 2.117769,-5.288 3.387263,-15.1764 -3.21875,-17.74999 -0.134635,1.41989 2.174678,4.76479 2.296875,7.09959 2.180967,7.6159 -2.209358,16.2119 -10.138785,18.0448 -6.697329,3.3969 -17.278945,4.6523 -21.394419,-3.1424 -4.07927,-11.8755 -1.994229,-28.67591 10.492188,-34.58012 3.944357,-1.85265 9.658554,-2.82772 12.873047,-4.1543 z"
       style="fill:#216778;fill-opacity:1;stroke:#162d50;stroke-width:0.98847395;stroke-miterlimit:4;stroke-dasharray:none;stroke-dashoffset:0" />
    <path
       inkscape:connector-curvature="0"
       id="path3539"
       d="m 36.294922,57.02264 c -2.590189,2.2946 3.513047,4.9071 4.529297,6.5586 5.460871,4.7084 9.483128,11.3084 16.53125,13.9882 -6.953356,-6.8448 -14.639301,-13.4197 -21.060547,-20.5468 z"
       style="fill:#216778;fill-opacity:1;stroke:#162d50;stroke-width:0.98847395;stroke-miterlimit:4;stroke-dasharray:none;stroke-dashoffset:0" />
    <path
       inkscape:connector-curvature="0"
       id="path3541"
       d="m 81.298828,51.86834 c -2.886119,0.9003 1.592584,2.4538 1.390625,4.5215 2.239159,5.8022 -4.767489,13.1434 -10.287109,8.9003 -4.183216,-2.4302 -6.470268,-8.4061 -2.320313,-12.0253 0.797065,-1.0948 -3.594156,1.35 -3.511719,2.6191 -3.778989,7.9141 7.842799,12.8096 14.119141,10.4023 5.060806,-2.4938 5.692378,-11.7804 0.609375,-14.4179 z"
       style="fill:#216778;fill-opacity:1;stroke:#162d50;stroke-width:0.98847395;stroke-miterlimit:4;stroke-dasharray:none;stroke-dashoffset:0" />
    <path
       inkscape:connector-curvature="0"
       id="path3543"
       d="m 103.0293,48.90344 c -8.006615,0.5778 -14.306461,11.6848 -7.345706,17.5 8.359636,8.1953 22.552996,-7.1675 14.148436,-15.0976 -1.75637,-2.1044 -2.60717,-1.4501 -1.53906,0.5039 5.0024,5.6014 -0.16753,18.107 -8.22852,15.6855 -5.888389,-2.2822 -7.657968,-11.0471 -2.003903,-14.6504 1.515949,-1.7262 5.833143,-2.6748 6.146483,-3.9511 l -0.91601,-0.012 -0.26172,0.021 z"
       style="fill:#216778;fill-opacity:1;stroke:#162d50;stroke-width:0.98847395;stroke-miterlimit:4;stroke-dasharray:none;stroke-dashoffset:0" />
    <path
       inkscape:connector-curvature="0"
       id="path3545"
       d="m 125.2793,33.72182 c -5.75163,5.99596 -0.18709,15.06552 -2.95118,22.24612 -0.99811,5.7521 -1.46065,12.1148 1.3711,17.4297 -0.25895,-13.2408 0.50338,-26.5005 1.58008,-39.67582 z"
       style="fill:#216778;fill-opacity:1;stroke:#162d50;stroke-width:0.98847395;stroke-miterlimit:4;stroke-dasharray:none;stroke-dashoffset:0" />
    <path
       inkscape:connector-curvature="0"
       id="path3547"
       d="m 142.88086,50.04994 c -4.55178,0.8185 -11.71566,4.6494 -10.81836,10.0664 5.9703,4.1876 14.81971,2.5567 21.38086,3.6055 -4.3367,-2.3172 -9.17185,-1.4182 -13.72656,-1.3399 -3.13178,-0.1598 -7.88279,-4.556 -3.5586,-6.7168 4.16464,-0.3119 10.51963,2.6836 12.76172,-2.5214 -0.82499,-2.3385 -3.77343,-3.3193 -6.03906,-3.0938 z m 0.33203,0.6856 c 3.44484,-0.2416 4.87952,4.9593 0.78711,4.9218 -3.27931,1.2974 -7.90373,-3.0985 -3.29297,-4.6718 0.81406,-0.1357 1.69596,-0.4582 2.50586,-0.25 z"
       style="fill:#216778;fill-opacity:1;stroke:#162d50;stroke-width:0.98847395;stroke-miterlimit:4;stroke-dasharray:none;stroke-dashoffset:0" />
    <path
       inkscape:connector-curvature="0"
       id="path3549"
       d="m 154.15234,24.74331 c -3.37422,0.8355 5.67983,1.91501 7.75187,2.6519 10.00968,2.17184 20.24412,3.25647 30.48641,3.24849 -6.52398,10.77266 -2.14314,23.77324 -5.95898,35.26364 -5.29252,2.9465 -10.6821,-2.5837 -15.99805,-1.7949 5.44371,1.5408 11.88303,5.8255 17.28907,3.0391 3.16595,-7.1107 1.5766,-15.2436 2.45507,-22.7539 -0.54037,-5.50891 3.34325,-10.91455 5.65821,-14.76175 -6.9702,-1.13257 -14.17713,1.6987 -21.07272,-0.76314 -6.9519,-0.92312 -13.78769,-2.64655 -20.61088,-4.12944 z"
       style="fill:#216778;fill-opacity:1;stroke:#162d50;stroke-width:0.98847395;stroke-miterlimit:4;stroke-dasharray:none;stroke-dashoffset:0" />
    <path
       inkscape:connector-curvature="0"
       id="path3551"
       d="m 232.82422,26.63784 c -6.80082,4.97087 -17.9231,-1.66076 -22.79883,6.48242 -4.07058,6.13426 2.449,14.81218 9.45703,12.86718 8.68934,0.56 13.84279,12.1965 9.98828,19.459 -5.04744,6.9665 -19.45051,5.7701 -20.45703,-3.8047 -0.92748,-2.5062 -5.41455,-2.979 -2.9707,0.7656 4.33563,9.7677 21.20817,10.8076 26.01562,1.1817 1.42827,-6.9709 -1.12363,-16.3803 -9.37926,-17.1712 -5.01939,-1.2458 -13.44703,-3.97673 -11.59535,-10.74875 2.41474,-8.29432 13.56597,-8.27563 19.625,-4.14648 0.83103,-0.28384 4.67235,-5.32492 2.11524,-4.88477 z"
       style="fill:#216778;fill-opacity:1;stroke:#162d50;stroke-width:0.98847395;stroke-miterlimit:4;stroke-dasharray:none;stroke-dashoffset:0" />
  </g>
</svg>
