<?xml version="1.0" encoding="UTF-8" standalone="no"?>
<!-- Created with Inkscape (http://www.inkscape.org/) -->

<svg
   xmlns:dc="http://purl.org/dc/elements/1.1/"
   xmlns:cc="http://creativecommons.org/ns#"
   xmlns:rdf="http://www.w3.org/1999/02/22-rdf-syntax-ns#"
   xmlns:svg="http://www.w3.org/2000/svg"
   xmlns="http://www.w3.org/2000/svg"
   xmlns:sodipodi="http://sodipodi.sourceforge.net/DTD/sodipodi-0.dtd"
   xmlns:inkscape="http://www.inkscape.org/namespaces/inkscape"
   width="48"
   height="48"
   viewBox="0 0 48 48"
   id="svg3336"
   version="1.1"
   inkscape:version="0.91 r"
   inkscape:export-filename="/home/alexem/Projects/dev/prototype/qoolejs/src/assets/icons/rotate.png"
   inkscape:export-xdpi="90"
   inkscape:export-ydpi="90"
   sodipodi:docname="rotate.svg">
  <defs
     id="defs3338">
    <inkscape:perspective
       sodipodi:type="inkscape:persp3d"
       inkscape:vp_x="-6.7599199 : 31.474618 : 1"
       inkscape:vp_y="0 : 1000 : 0"
       inkscape:vp_z="84.818944 : 34.558919 : 1"
       inkscape:persp3d-origin="18.530331 : 16 : 1"
       id="perspective3392" />
  </defs>
  <sodipodi:namedview
     id="base"
     pagecolor="#ffffff"
     bordercolor="#666666"
     borderopacity="1.0"
     inkscape:pageopacity="0.0"
     inkscape:pageshadow="2"
     inkscape:zoom="5.6568542"
     inkscape:cx="12.325321"
     inkscape:cy="18.961114"
     inkscape:document-units="px"
     inkscape:current-layer="layer2"
     showgrid="false"
     units="px"
     inkscape:window-width="1366"
     inkscape:window-height="638"
     inkscape:window-x="0"
     inkscape:window-y="33"
     inkscape:window-maximized="1" />
  <metadata
     id="metadata3341">
    <rdf:RDF>
      <cc:Work
         rdf:about="">
        <dc:format>image/svg+xml</dc:format>
        <dc:type
           rdf:resource="http://purl.org/dc/dcmitype/StillImage" />
        <dc:title></dc:title>
      </cc:Work>
    </rdf:RDF>
  </metadata>
  <g
     inkscape:label="Layer 1"
     inkscape:groupmode="layer"
     id="layer1"
     transform="translate(0,-1004.3622)"
     style="display:none">
    <rect
       style="fill:#1a1a1a;fill-opacity:1;stroke:none;stroke-width:1;stroke-miterlimit:4;stroke-dasharray:none;stroke-dashoffset:0"
       id="rect4236"
       width="48.61359"
       height="47.906483"
       x="-0.17677669"
       y="1004.2789" />
  </g>
  <g
     inkscape:groupmode="layer"
     id="layer2"
     inkscape:label="Layer 2"
     style="display:inline">
    <g
       transform="translate(0,-1004.3622)"
       sodipodi:type="inkscape:box3d"
       id="g3416"
       style="display:inline;fill:#afc6e9;fill-opacity:0.72972969;stroke:#162d50;image-rendering:auto"
       inkscape:perspectiveID="#perspective3392"
       inkscape:corner0="0.39420935 : 0.0078225784 : 0 : 1"
       inkscape:corner7="-0.13090872 : -0.0052733895 : 0.25 : 1">
      <path
         sodipodi:type="inkscape:box3dside"
         id="path3426"
         style="fill:#afc6e9;fill-rule:evenodd;stroke:#162d50;stroke-width:1px;stroke-linecap:butt;stroke-linejoin:round;stroke-opacity:1"
         inkscape:box3dsidetype="13"
         d="m 11.379573,1035.7691 10.960156,8.9917 13.957578,-6.0222 -13.751368,-5.7011 z"
         points="22.339729,1044.7608 36.297307,1038.7386 22.545939,1033.0375 11.379573,1035.7691 " />
      <path
         sodipodi:type="inkscape:box3dside"
         id="path3418"
         style="fill:#afc6e9;fill-rule:evenodd;stroke:#162d50;stroke-width:1px;stroke-linecap:butt;stroke-linejoin:round;stroke-opacity:1"
         inkscape:box3dsidetype="6"
         d="m 11.379573,1026.376 0,9.3931 11.166366,-2.7316 0,-7.9649 z"
         points="11.379573,1035.7691 22.545939,1033.0375 22.545939,1025.0726 11.379573,1026.376 " />
      <path
         sodipodi:type="inkscape:box3dside"
         id="path3428"
         style="fill:#afc6e9;fill-rule:evenodd;stroke:#162d50;stroke-width:1px;stroke-linecap:butt;stroke-linejoin:round;stroke-opacity:1"
         inkscape:box3dsidetype="11"
         d="m 22.545939,1025.0726 13.751368,1.9637 0,11.7023 -13.751368,-5.7011 z"
         points="36.297307,1027.0363 36.297307,1038.7386 22.545939,1033.0375 22.545939,1025.0726 " />
      <path
         sodipodi:type="inkscape:box3dside"
         id="path3420"
         style="fill:#afc6e9;fill-rule:evenodd;stroke:#162d50;stroke-width:1px;stroke-linecap:butt;stroke-linejoin:round;stroke-opacity:1"
         inkscape:box3dsidetype="5"
         d="m 11.379573,1026.376 10.960156,3.3162 13.957578,-2.6559 -13.751368,-1.9637 z"
         points="22.339729,1029.6922 36.297307,1027.0363 22.545939,1025.0726 11.379573,1026.376 " />
      <path
         sodipodi:type="inkscape:box3dside"
         id="path3424"
         style="fill:#afc6e9;fill-rule:evenodd;stroke:#162d50;stroke-width:1px;stroke-linecap:butt;stroke-linejoin:round;stroke-opacity:1"
         inkscape:box3dsidetype="14"
         d="m 22.339729,1029.6922 0,15.0686 13.957578,-6.0222 0,-11.7023 z"
         points="22.339729,1044.7608 36.297307,1038.7386 36.297307,1027.0363 22.339729,1029.6922 " />
      <path
         sodipodi:type="inkscape:box3dside"
         id="path3422"
         style="fill:#afc6e9;fill-rule:evenodd;stroke:#162d50;stroke-width:1px;stroke-linecap:butt;stroke-linejoin:round;stroke-opacity:1"
         inkscape:box3dsidetype="3"
         d="m 11.379573,1026.376 10.960156,3.3162 0,15.0686 -10.960156,-8.9917 z"
         points="22.339729,1029.6922 22.339729,1044.7608 11.379573,1035.7691 11.379573,1026.376 " />
    </g>
    <path
       style="fill:#87aade;fill-opacity:1;stroke:#87aade;stroke-width:0.55755448;stroke-miterlimit:4;stroke-dasharray:none;stroke-dashoffset:0"
       id="path3358"
       d="m 22.995604,4.5331337 c -0.0049,0.8926208 -0.0046,1.7854463 -0.0048,2.6781879 -7.82e-4,0.8276642 0.0027,1.6552879 0.0027,2.4829361 6.32e-4,0.5309723 0.0011,1.0619363 0.0012,1.5929103 -9.03e-4,0.553624 -4.51e-4,1.107248 -5.42e-4,1.660875 0.0072,0.508126 -0.0038,1.009569 -0.02305,1.512672 -0.01694,0.399875 -0.02347,0.803128 -0.02736,1.206541 -0.01668,0.443889 0.02103,0.852763 0.05284,1.275673 0.04256,0.403357 0.07502,0.81414 0.09259,1.23871 0.0073,0.252369 0.0043,0.126545 0.0092,0.377466 0,0 -0.253309,0.214477 -0.253309,0.214477 l 0,0 c -0.0045,-0.246965 -0.0017,-0.123228 -0.0085,-0.371206 -0.01675,-0.421581 -0.04862,-0.829419 -0.09079,-1.229734 -0.03253,-0.430519 -0.07198,-0.847009 -0.05528,-1.299382 0.0027,-0.406835 0.01,-0.813272 0.02736,-1.216206 0.02,-0.499661 0.03223,-0.996864 0.02515,-1.502187 -9.7e-5,-0.553333 3.61e-4,-1.106663 -5.42e-4,-1.659992 1.72e-4,-0.531657 6.32e-4,-1.063306 0.0012,-1.5949602 -2e-6,-0.8291144 0.0035,-1.6582043 0.0027,-2.4873346 -1.81e-4,-0.8901084 1.4e-4,-1.7803026 -0.0048,-2.670289 0,0 0.254022,-0.2091575 0.254022,-0.2091575 z"
       inkscape:connector-curvature="0" />
    <path
       style="fill:#214478;fill-opacity:1;stroke:#d7e3f4;stroke-width:0.66052365;stroke-miterlimit:4;stroke-dasharray:none;stroke-dashoffset:0"
       id="path3356"
       d="m 19.688124,9.914899 c -0.826492,0.123872 -1.656366,0.234338 -2.487347,0.338322 -0.801314,0.109564 -1.599841,0.235442 -2.386467,0.398905 -0.07066,0.01469 0.274371,-0.07316 0.212535,-0.04241 -0.08314,0.04134 -0.18589,0.05025 -0.278834,0.07538 -0.421995,0.164671 -0.517408,0.488501 -0.520458,0.832077 0.0053,0.338272 0.140848,0.647544 0.336582,0.94352 0.179429,0.231216 0.393766,0.446176 0.630635,0.642277 0.285254,0.220047 0.609563,0.378525 0.976116,0.497945 1.196551,0.263082 2.468918,0.229646 3.700699,0.250873 1.896108,0.07017 3.791637,0.145364 5.689178,0.186984 0.834013,0.01984 1.669645,0.0371 2.501211,-0.03203 0.227157,-0.01889 0.835815,-0.09617 1.06364,-0.124253 0.882064,-0.126008 1.76308,-0.254479 2.645602,-0.378148 0.348426,-0.03824 0.69133,-0.09935 1.03531,-0.155955 0.116885,-0.01924 0.232017,-0.05086 0.35128,-0.05529 0.09153,-0.0034 -0.345672,0.0891 -0.266868,0.05215 0.09222,-0.04323 0.205763,-0.04783 0.308645,-0.07174 0.419052,-0.112672 0.857142,-0.20675 1.197245,-0.439827 0.219841,-0.193649 0.285361,-0.451275 0.368405,-0.695171 0.09176,-0.259421 0.121315,-0.517993 0.0707,-0.783759 -0.09841,-0.338782 -0.299717,-0.584962 -0.641866,-0.798597 -0.372311,-0.22996 -0.792688,-0.400485 -1.235842,-0.52628 -0.487463,-0.117953 -1.001047,-0.123771 -1.506346,-0.133454 -0.518723,-0.0063 -1.037525,-0.0031 -1.556271,-0.001 0.0041,-0.01113 -0.42655,0.02021 -0.415874,-0.01602 0.03893,-0.132134 0.234399,-0.142987 0.361645,-0.169804 0.322667,-0.068 0.647719,-0.128745 0.971578,-0.193117 -0.06336,0.01281 -0.252627,0.05359 -0.190096,0.03843 0.101641,-0.02464 0.603276,-0.132781 0.72045,-0.158806 0.308448,-0.06851 0.754946,-0.17838 1.018357,-0.20802 0.027,-0.003 0.0202,0.04003 0.03031,0.06004 -0.035,0.03025 -0.06177,0.06811 -0.105011,0.09074 -0.143563,0.07512 -0.512262,0.174513 -0.644283,0.211667 -0.526632,0.148209 -1.056933,0.278737 -1.594555,0.399424 -0.950786,0.191295 -1.905576,0.382565 -2.87212,0.519843 -0.134276,0.02332 -0.272209,0.02232 -0.407715,0.03718 -0.05382,0.0059 -0.212566,0.03531 -0.160114,0.02412 1.187062,-0.25336 0.485068,-0.13965 0.402251,-0.0481 0.266747,0.04004 0.538691,0.04359 0.809403,0.04943 0.282421,0.01837 0.569801,-0.01375 0.851787,0.0047 0.172398,0.01127 0.274472,0.04073 0.440911,0.07743 0.53497,0.188464 1.028143,0.437688 1.516335,0.690771 0.262155,0.113128 0.132862,0.05802 0.387804,0.165414 0,0 -0.599381,0.169245 -0.599381,0.169245 l 0,0 c -0.25422,-0.109296 -0.125347,-0.05249 -0.386444,-0.170686 -0.480658,-0.255068 -0.971387,-0.503408 -1.510913,-0.674846 -0.425162,-0.08354 -0.85308,-0.06745 -1.28887,-0.07093 -0.19124,-0.0046 -0.650808,0.01929 -0.811131,-0.0779 -0.02228,-0.01351 -0.0318,-0.0366 -0.0477,-0.05488 0.0029,-0.0179 -0.0041,-0.03891 0.009,-0.05369 0.157906,-0.177998 1.023607,-0.224186 1.376384,-0.267212 0.578811,-0.08294 1.147832,-0.204624 1.726469,-0.286982 0.01311,-0.0019 -0.02223,0.01158 -0.03336,0.01737 0.783216,-0.17343 1.560076,-0.370794 2.310195,-0.617732 0.131614,0.09106 0.01187,0.0128 0.471206,-0.0987 0.08921,-0.02165 -0.179349,0.04082 -0.269252,0.06058 -0.571599,0.125679 -1.143267,0.251248 -1.717365,0.369706 0.537518,-0.140679 0.03505,-0.0068 -0.03453,8.39e-4 -0.04069,0.0045 -0.08077,-0.01193 -0.121208,-0.01767 -0.01296,-0.0018 0.02562,0.0055 0.03876,0.006 0.05038,0.0017 0.100854,2.57e-4 0.151279,2.51e-4 0.06761,-8e-6 0.135217,-1.95e-4 0.202827,-2.93e-4 0.517556,-8.58e-4 1.035177,-0.003 1.552684,0.0038 0.509805,0.01137 1.02834,0.01971 1.517236,0.147638 0.445572,0.133164 0.869395,0.3071 1.244689,0.541244 0.346736,0.227211 0.554332,0.48372 0.656524,0.833678 0.05677,0.27273 0.03357,0.53696 -0.06228,0.803865 -0.08482,0.251281 -0.149355,0.515692 -0.360532,0.723429 -0.334709,0.251388 -0.780723,0.347913 -1.208925,0.463792 -0.860867,0.201474 -1.730836,0.375253 -2.619864,0.4792 -0.878509,0.12066 -1.754387,0.251225 -2.63276,0.372678 -0.28175,0.03417 -0.78081,0.09769 -1.063345,0.119783 -0.825494,0.06457 -1.65442,0.04376 -2.481709,0.02057 -1.891939,-0.049 -3.782033,-0.126246 -5.673097,-0.1917 -1.255049,-0.01778 -2.555081,0.02794 -3.772698,-0.247649 -0.374011,-0.123694 -0.70519,-0.288718 -0.99514,-0.515135 -0.237531,-0.201006 -0.45281,-0.420959 -0.632265,-0.656671 -0.196581,-0.303871 -0.333356,-0.621809 -0.342252,-0.967034 -0.0054,-0.357459 0.09024,-0.706506 0.514796,-0.894143 1.172462,-0.324271 2.406035,-0.492498 3.623008,-0.674024 0.846896,-0.109153 1.692336,-0.225644 2.534919,-0.353619 0,0 -0.593485,0.202039 -0.593485,0.202039 z"
       inkscape:connector-curvature="0" />
  </g>
</svg>
