<?xml version="1.0" encoding="UTF-8" standalone="no"?>
<!-- Created with Inkscape (http://www.inkscape.org/) -->

<svg
   xmlns:dc="http://purl.org/dc/elements/1.1/"
   xmlns:cc="http://creativecommons.org/ns#"
   xmlns:rdf="http://www.w3.org/1999/02/22-rdf-syntax-ns#"
   xmlns:svg="http://www.w3.org/2000/svg"
   xmlns="http://www.w3.org/2000/svg"
   xmlns:sodipodi="http://sodipodi.sourceforge.net/DTD/sodipodi-0.dtd"
   xmlns:inkscape="http://www.inkscape.org/namespaces/inkscape"
   width="48"
   height="48"
   viewBox="0 0 48 48"
   id="svg3336"
   version="1.1"
   inkscape:version="0.91 r"
   inkscape:export-filename="/home/alexem/Projects/dev/prototype/qoolejs/src/assets/icons/scale.png"
   inkscape:export-xdpi="90"
   inkscape:export-ydpi="90"
   sodipodi:docname="scale.svg">
  <defs
     id="defs3338">
    <inkscape:perspective
       sodipodi:type="inkscape:persp3d"
       inkscape:vp_x="-6.7599199 : 31.474618 : 1"
       inkscape:vp_y="0 : 1000 : 0"
       inkscape:vp_z="84.818944 : 34.558919 : 1"
       inkscape:persp3d-origin="18.530331 : 16 : 1"
       id="perspective3392" />
  </defs>
  <sodipodi:namedview
     id="base"
     pagecolor="#ffffff"
     bordercolor="#666666"
     borderopacity="1.0"
     inkscape:pageopacity="0.0"
     inkscape:pageshadow="2"
     inkscape:zoom="16"
     inkscape:cx="22.53853"
     inkscape:cy="36.041121"
     inkscape:document-units="px"
     inkscape:current-layer="layer2"
     showgrid="false"
     units="px"
     inkscape:window-width="1366"
     inkscape:window-height="638"
     inkscape:window-x="0"
     inkscape:window-y="33"
     inkscape:window-maximized="1" />
  <metadata
     id="metadata3341">
    <rdf:RDF>
      <cc:Work
         rdf:about="">
        <dc:format>image/svg+xml</dc:format>
        <dc:type
           rdf:resource="http://purl.org/dc/dcmitype/StillImage" />
        <dc:title></dc:title>
      </cc:Work>
    </rdf:RDF>
  </metadata>
  <g
     inkscape:label="Layer 1"
     inkscape:groupmode="layer"
     id="layer1"
     transform="translate(0,-1004.3622)"
     style="display:none">
    <rect
       style="fill:#1a1a1a;fill-opacity:1;stroke:none;stroke-width:1;stroke-miterlimit:4;stroke-dasharray:none;stroke-dashoffset:0"
       id="rect4236"
       width="48.61359"
       height="47.906483"
       x="-0.17677669"
       y="1004.2789" />
  </g>
  <g
     inkscape:groupmode="layer"
     id="layer2"
     inkscape:label="Layer 2"
     style="display:inline">
    <g
       transform="translate(0,-1004.3622)"
       sodipodi:type="inkscape:box3d"
       id="g3416"
       style="display:inline;fill:#afc6e9;fill-opacity:0.72972969;stroke:#162d50;image-rendering:auto"
       inkscape:perspectiveID="#perspective3392"
       inkscape:corner0="0.39420935 : 0.0078225784 : 0 : 1"
       inkscape:corner7="-0.13090872 : -0.0052733895 : 0.25 : 1">
      <path
         sodipodi:type="inkscape:box3dside"
         id="path3426"
         style="fill:#afc6e9;fill-rule:evenodd;stroke:#162d50;stroke-width:1px;stroke-linecap:butt;stroke-linejoin:round;stroke-opacity:1"
         inkscape:box3dsidetype="13"
         d="m 11.379573,1035.7691 10.960156,8.9917 13.957578,-6.0222 -13.751368,-5.7011 z"
         points="22.339729,1044.7608 36.297307,1038.7386 22.545939,1033.0375 11.379573,1035.7691 " />
      <path
         sodipodi:type="inkscape:box3dside"
         id="path3418"
         style="fill:#afc6e9;fill-rule:evenodd;stroke:#162d50;stroke-width:1px;stroke-linecap:butt;stroke-linejoin:round;stroke-opacity:1"
         inkscape:box3dsidetype="6"
         d="m 11.379573,1026.376 0,9.3931 11.166366,-2.7316 0,-7.9649 z"
         points="11.379573,1035.7691 22.545939,1033.0375 22.545939,1025.0726 11.379573,1026.376 " />
      <path
         sodipodi:type="inkscape:box3dside"
         id="path3428"
         style="fill:#afc6e9;fill-rule:evenodd;stroke:#162d50;stroke-width:1px;stroke-linecap:butt;stroke-linejoin:round;stroke-opacity:1"
         inkscape:box3dsidetype="11"
         d="m 22.545939,1025.0726 13.751368,1.9637 0,11.7023 -13.751368,-5.7011 z"
         points="36.297307,1027.0363 36.297307,1038.7386 22.545939,1033.0375 22.545939,1025.0726 " />
      <path
         sodipodi:type="inkscape:box3dside"
         id="path3420"
         style="fill:#afc6e9;fill-rule:evenodd;stroke:#162d50;stroke-width:1px;stroke-linecap:butt;stroke-linejoin:round;stroke-opacity:1"
         inkscape:box3dsidetype="5"
         d="m 11.379573,1026.376 10.960156,3.3162 13.957578,-2.6559 -13.751368,-1.9637 z"
         points="22.339729,1029.6922 36.297307,1027.0363 22.545939,1025.0726 11.379573,1026.376 " />
      <path
         sodipodi:type="inkscape:box3dside"
         id="path3424"
         style="fill:#afc6e9;fill-rule:evenodd;stroke:#162d50;stroke-width:1px;stroke-linecap:butt;stroke-linejoin:round;stroke-opacity:1"
         inkscape:box3dsidetype="14"
         d="m 22.339729,1029.6922 0,15.0686 13.957578,-6.0222 0,-11.7023 z"
         points="22.339729,1044.7608 36.297307,1038.7386 36.297307,1027.0363 22.339729,1029.6922 " />
      <path
         sodipodi:type="inkscape:box3dside"
         id="path3422"
         style="fill:#afc6e9;fill-rule:evenodd;stroke:#162d50;stroke-width:1px;stroke-linecap:butt;stroke-linejoin:round;stroke-opacity:1"
         inkscape:box3dsidetype="3"
         d="m 11.379573,1026.376 10.960156,3.3162 0,15.0686 -10.960156,-8.9917 z"
         points="22.339729,1029.6922 22.339729,1044.7608 11.379573,1035.7691 11.379573,1026.376 " />
    </g>
    <path
       style="fill:#87aade;fill-opacity:1;stroke:#87aade;stroke-width:0.43265805;stroke-miterlimit:4;stroke-dasharray:none;stroke-dashoffset:0"
       id="path3358"
       d="m 10.860264,5.8859471 c -0.0035,0.7564992 -0.0033,1.5131721 -0.0034,2.2697738 -5.56e-4,0.7014481 0.0019,1.4028621 0.0019,2.1042971 4.49e-4,0.450001 7.36e-4,0.899995 8.69e-4,1.349998 -6.41e-4,0.469197 -3.2e-4,0.938396 -3.85e-4,1.407597 0.0051,0.430639 -0.0027,0.855613 -0.01637,1.281996 -0.01203,0.338894 -0.01667,0.680653 -0.01944,1.022547 -0.01186,0.376198 0.01494,0.72272 0.03754,1.081137 0.03024,0.341847 0.05331,0.689987 0.06578,1.049811 0.0051,0.213884 0.0031,0.107248 0.0065,0.319904 0,0 -0.17998,0.18177 -0.17998,0.18177 l 0,0 c -0.0032,-0.209303 -0.0012,-0.104436 -0.0061,-0.314598 -0.0119,-0.357291 -0.03455,-0.702936 -0.06451,-1.042204 -0.02311,-0.364866 -0.05115,-0.717843 -0.03928,-1.10123 0.0019,-0.344795 0.0071,-0.689251 0.01944,-1.030739 0.01421,-0.423466 0.02289,-0.844847 0.01788,-1.27311 -7e-5,-0.468951 2.56e-4,-0.937901 -3.85e-4,-1.406849 1.22e-4,-0.450581 4.49e-4,-0.901155 8.69e-4,-1.351735 -2e-6,-0.702677 0.0025,-1.405334 0.0019,-2.1080247 -1.29e-4,-0.75437 9.9e-5,-1.5088128 -0.0034,-2.2630796 0,0 0.180486,-0.1772616 0.180486,-0.1772616 z"
       inkscape:connector-curvature="0" />
    <path
       inkscape:connector-curvature="0"
       d="m 36.688875,5.9378125 c -0.0033,0.7539148 -0.0031,1.5080027 -0.0032,2.2620196 -5.24e-4,0.6990519 0.0018,1.3980699 0.0018,2.0971089 4.23e-4,0.448463 6.93e-4,0.89692 8.19e-4,1.345385 -6.06e-4,0.467594 -3.02e-4,0.935191 -3.63e-4,1.402788 0.0049,0.429167 -0.0026,0.852692 -0.01546,1.277616 -0.01136,0.337737 -0.01574,0.678329 -0.01836,1.019055 -0.0112,0.374912 0.01411,0.72025 0.03545,1.077443 0.02855,0.340679 0.05033,0.68763 0.06212,1.046224 0.0049,0.213154 0.0029,0.106882 0.0062,0.318812 0,0 -0.169953,0.181148 -0.169953,0.181148 l 0,0 c -0.003,-0.208587 -0.0011,-0.104079 -0.0057,-0.313523 -0.01124,-0.356071 -0.03262,-0.700534 -0.06091,-1.038644 -0.02183,-0.36362 -0.0483,-0.71539 -0.03709,-1.097467 0.0018,-0.343617 0.0067,-0.686897 0.01836,-1.027219 0.01342,-0.422018 0.02162,-0.841959 0.01688,-1.268759 -6.5e-5,-0.46735 2.42e-4,-0.934697 -3.63e-4,-1.402042 1.16e-4,-0.449044 4.24e-4,-0.898078 8.19e-4,-1.347118 -1e-6,-0.700277 0.0024,-1.400533 0.0018,-2.1008231 -1.22e-4,-0.7517929 9.4e-5,-1.5036584 -0.0032,-2.2553483 0,0 0.17043,-0.1766561 0.17043,-0.1766561 z"
       id="path3398"
       style="fill:#87aade;fill-opacity:1;stroke:#87aade;stroke-width:0.41971368;stroke-miterlimit:4;stroke-dasharray:none;stroke-dashoffset:0" />
    <path
       style="fill:#afc6e9;fill-opacity:1;stroke:#afc6e9;stroke-width:0.90366632;stroke-miterlimit:4;stroke-dasharray:none;stroke-dashoffset:0"
       id="path3402"
       d="m 17.858053,12.301218 c -0.492075,-0.0046 -0.983007,-0.0418 -1.474204,-0.0658 -0.340541,-0.01611 -0.681283,-0.02999 -1.022355,-0.03564 -0.139963,-0.002 -0.279949,-0.0012 -0.419923,-0.0011 -0.139071,1.78e-4 -0.278142,3.94e-4 -0.417213,5.09e-4 -0.127755,9.1e-5 -0.255511,9.9e-5 -0.383266,1.05e-4 -0.136957,0.01973 -0.274671,0.03369 -0.413347,0.0424 -0.140456,0.0091 -0.277812,0.03493 -0.418283,0.0465 -0.139155,0.01403 -0.28047,0.0036 -0.418949,0.02024 -0.294173,-0.0248 0.180321,-0.254333 0.236198,-0.285974 0.241983,-0.129901 0.45828,-0.286323 0.674988,-0.441675 0.113445,-0.09624 0.248253,-0.172539 0.372355,-0.258944 0.106344,-0.0825 0.06089,-0.05968 0.335314,-0.06425 0.0175,-2.91e-4 -0.02951,0.01524 -0.04407,0.0231 -0.0566,0.03053 -0.08218,0.04552 -0.139413,0.07802 -0.195042,0.10158 -0.39353,0.198753 -0.589158,0.299803 -0.138775,0.06977 -0.291874,0.118426 -0.424253,0.196251 -0.08752,0.06122 -0.195202,0.09678 -0.291591,0.147037 -0.05935,0.04314 -0.168871,0.07792 -0.145745,0.153453 0.06246,0.113443 0.193893,0.197657 0.301278,0.283884 0.185689,0.13833 0.370325,0.27663 0.547053,0.42265 0.153109,0.123731 0.324564,0.230443 0.482464,0.349774 0.07411,0.06017 0.148994,0.119202 0.227338,0.175726 0,0 -0.288806,0.07728 -0.288806,0.07728 l 0,0 c -0.0776,-0.05736 -0.152421,-0.116813 -0.227915,-0.175983 -0.158173,-0.118969 -0.328238,-0.227159 -0.480375,-0.351548 -0.176218,-0.146529 -0.362511,-0.283291 -0.54803,-0.421858 -0.112964,-0.08896 -0.249767,-0.175713 -0.312553,-0.295322 -0.03218,-0.101353 0.05715,-0.123586 0.139045,-0.1834 0.09318,-0.05548 0.205557,-0.08471 0.293978,-0.146181 0.129949,-0.08309 0.285137,-0.130946 0.427184,-0.198715 0.196128,-0.09925 0.392079,-0.198862 0.58788,-0.298308 0.01446,-0.0084 0.161937,-0.100482 0.176591,-0.103286 0.414445,-0.07933 0.39401,-0.09614 0.277562,-0.0054 -0.123031,0.08901 -0.26275,0.161839 -0.376524,0.259427 -0.219492,0.155051 -0.436483,0.313082 -0.679083,0.444893 -0.02712,0.01533 -0.336793,0.191577 -0.332321,0.210737 0.0052,0.02236 0.09103,-0.0042 0.08329,0.01073 0.13901,-0.01127 0.279445,-0.0058 0.418382,-0.01961 0.140166,-0.01302 0.277848,-0.03941 0.418814,-0.04598 0.139123,-0.0097 0.2766,-0.02778 0.41515,-0.04081 0.127647,4e-6 0.255297,1.2e-5 0.382945,-1.6e-5 0.139,-4.5e-5 0.278,-1.15e-4 0.416999,-4.72e-4 0.139255,-4.03e-4 0.278535,-4.78e-4 0.417751,0.0026 0.335189,0.0083 0.669909,0.02531 1.004556,0.04248 0.498327,0.02576 0.997301,0.06321 1.49695,0.05663 0,0 -0.286674,0.09612 -0.286674,0.09612 z"
       inkscape:connector-curvature="0" />
    <path
       style="fill:#afc6e9;fill-opacity:1;stroke:#afc6e9;stroke-width:0.87874204;stroke-miterlimit:4;stroke-dasharray:none;stroke-dashoffset:0"
       id="path3404"
       d="m 23.334879,13.248465 c -0.0032,0.140622 -0.0032,0.281287 -0.0033,0.42193 1.21e-4,0.209432 -0.0021,0.418858 -0.0029,0.62829 -2.86e-4,0.216156 0.0019,0.432308 0.0024,0.648463 4.31e-4,0.187562 -2.9e-4,0.375124 -6.24e-4,0.562686 8e-5,0.179314 6.58e-4,0.358628 0.0014,0.537941 -0.0085,0.107424 -0.03568,0.21318 -0.04951,0.320218 -0.01119,0.101853 -0.01163,0.204134 -0.01291,0.30626 0.0051,0.112811 -0.01088,0.226944 0.008,0.339117 -0.07089,0.05036 0.157284,-0.0048 0.122857,0.0016 -0.256783,0.04742 -0.315585,0.07107 -0.154087,0.01751 0.513814,-0.211022 1.015524,-0.438358 1.526307,-0.653559 0.514363,-0.200577 1.031153,-0.397584 1.546302,-0.597038 0.121457,-0.05168 0.08887,-0.05681 0.336942,-0.03995 0.02341,0.0016 -0.03762,0.02122 -0.05655,0.03173 -0.09801,0.05438 -0.06083,0.03436 -0.165664,0.08685 -0.184495,0.08729 -0.357532,0.185844 -0.54682,0.267262 -0.197136,0.08174 -0.365956,0.196522 -0.526387,0.314216 -0.151981,0.115667 -0.304685,0.230196 -0.451101,0.349956 -0.14262,0.09654 -0.287757,0.191562 -0.442161,0.277351 -0.131517,0.07095 -0.267961,0.133164 -0.410465,0.190332 -0.109099,0.04416 -0.228288,0.06631 -0.336824,0.111508 -0.177149,0.0823 -0.286549,0.123618 -0.532366,0.130377 -0.03367,8.94e-4 -0.17924,-0.11787 -0.180098,-0.11852 -0.352155,-0.299954 -0.735459,-0.576829 -1.120303,-0.852406 -0.180165,-0.129536 -0.377751,-0.2427 -0.579981,-0.351396 0,0 0.280576,-0.07242 0.280576,-0.07242 l 0,0 c 0.198511,0.111485 0.392502,0.227167 0.571535,0.356521 0.387357,0.276323 0.771639,0.554793 1.136001,0.848639 0.03396,0.02332 0.06509,0.0492 0.101853,0.06996 0.02357,0.01331 0.100997,0.01785 0.07779,0.03151 -0.06537,0.03854 -0.156355,0.042 -0.235282,0.06131 -0.07453,0.01823 0.23217,-0.07623 0.173252,-0.07304 0.107179,-0.04915 0.223686,-0.07268 0.336622,-0.112151 0.141083,-0.0589 0.282837,-0.114477 0.412855,-0.187481 0.155593,-0.08431 0.299864,-0.17943 0.445519,-0.273104 0.146487,-0.120345 0.297746,-0.236238 0.451569,-0.35115 0.15875,-0.119547 0.327993,-0.235882 0.523608,-0.320044 0.190114,-0.08048 0.36392,-0.176953 0.547196,-0.265766 0.02296,-0.01123 0.201189,-0.114166 0.215648,-0.117019 0.110834,-0.02187 0.225692,-0.0298 0.338494,-0.04487 0.0026,-3.57e-4 -0.0053,4.61e-4 -0.0081,6.91e-4 -0.01882,0.0076 -0.03764,0.01508 -0.05646,0.02261 -0.527733,0.194894 -1.050439,0.397801 -1.574122,0.598739 -0.502533,0.211618 -0.994792,0.436349 -1.494119,0.652136 -0.187202,0.06927 -0.06717,0.02933 -0.436206,0.105884 -0.06258,0.01298 -0.115979,0.01387 -0.13859,-0.03932 -0.01795,-0.113379 -0.0021,-0.228358 -0.0073,-0.342314 -2.6e-5,-0.102707 -5.87e-4,-0.205582 0.01053,-0.308029 0.01349,-0.106765 0.0407,-0.211977 0.05404,-0.318728 7.72e-4,-0.179485 0.0013,-0.358972 0.0014,-0.538459 -3.35e-4,-0.187486 -0.001,-0.374972 -6.25e-4,-0.562458 4.53e-4,-0.216446 0.0027,-0.432887 0.0024,-0.649334 -8.31e-4,-0.209079 -0.003,-0.418154 -0.0029,-0.627235 -5.7e-5,-0.140238 -1.07e-4,-0.2805 -0.0033,-0.420717 0,0 0.303938,-0.05504 0.303938,-0.05504 z"
       inkscape:connector-curvature="0" />
    <path
       style="fill:#afc6e9;fill-opacity:1;stroke:#afc6e9;stroke-width:0.90366632;stroke-miterlimit:4;stroke-dasharray:none;stroke-dashoffset:0"
       id="path3406"
       d="m 29.456797,12.052662 c 0.299326,0.0055 0.598908,-0.0044 0.897929,0.0083 0.290534,0.01495 0.57847,0.04932 0.868396,0.07009 0.233942,0.01996 0.469894,0.01348 0.703823,0.03094 0.235645,0.03089 0.462034,0.09538 0.686791,0.158678 0.199433,0.06119 0.411119,0.07567 0.622052,0.08488 0.177389,-0.01276 0.359312,-0.0144 0.533695,-0.04545 -0.07709,0.01522 -0.153314,0.03363 -0.231256,0.04565 -0.02068,0.0032 0.04251,-0.008 0.05863,-0.01903 0.03868,-0.0263 -0.01076,-0.07953 -0.02347,-0.09574 -0.08691,-0.110986 -0.125236,-0.13035 -0.245434,-0.228348 -0.332962,-0.256978 -0.701185,-0.480963 -1.058009,-0.715148 -0.153558,-0.08658 -0.286124,-0.193023 -0.42607,-0.292342 0.07613,-0.06751 -0.07348,-0.0076 -0.05509,-0.01124 0.39815,-0.07845 0.242166,-0.136988 0.318367,-0.0312 0.03037,0.04217 0.05963,0.07184 0.09584,0.111673 0.210942,0.215863 0.463415,0.401233 0.711144,0.588545 0.207989,0.153611 0.428914,0.29384 0.666937,0.415409 0.171503,0.09312 0.357417,0.166214 0.536441,0.249452 0.01287,0.0066 0.08087,0.03592 0.08385,0.0578 0.01347,0.09949 -0.39275,0.250952 -0.462616,0.282349 -0.477873,0.213816 -0.906006,0.491688 -1.333721,0.764493 -0.187245,0.126206 -0.379051,0.247961 -0.565226,0.375211 0,0 -0.301074,0.03651 -0.301074,0.03651 l 0,0 c 0.188087,-0.128902 0.383344,-0.25075 0.573915,-0.377206 0.432201,-0.270749 0.862923,-0.547848 1.337635,-0.768628 0.147225,-0.06674 0.297401,-0.128224 0.427495,-0.216049 0.0098,-0.0066 0.02787,-0.0107 0.02833,-0.02107 0.0012,-0.0268 -0.0784,-0.03214 -0.07708,-0.05081 -0.177619,-0.08475 -0.363248,-0.15769 -0.534288,-0.251113 -0.236685,-0.123196 -0.454018,-0.26723 -0.660552,-0.421873 -0.249876,-0.189149 -0.505864,-0.374944 -0.722547,-0.590195 -0.01272,-0.01373 -0.137537,-0.14709 -0.125529,-0.153185 0.225511,-0.11447 0.225623,-0.139198 0.350072,-0.06718 0.135658,0.100667 0.267688,0.204657 0.415693,0.294024 0.353147,0.238026 0.717688,0.465529 1.055327,0.71832 0.0552,0.04431 0.3788,0.278758 0.295334,0.368289 -0.08699,0.09331 -0.532634,-0.182896 -0.414464,0.102177 -0.175714,0.0245 -0.355635,0.03304 -0.53354,0.03863 -0.21216,-0.01079 -0.424438,-0.02797 -0.624177,-0.09153 -0.223247,-0.06352 -0.44967,-0.126038 -0.684841,-0.152615 -0.233047,-0.0139 -0.467326,-0.0128 -0.700022,-0.03239 -0.28955,-0.02178 -0.577648,-0.05432 -0.867954,-0.06916 -0.302214,-0.01137 -0.604964,-0.0044 -0.907419,-0.0038 0,0 0.286674,-0.09612 0.286674,-0.09612 z"
       inkscape:connector-curvature="0" />
    <path
       style="fill:#afc6e9;fill-opacity:1;stroke:#afc6e9;stroke-width:0.90366632;stroke-miterlimit:4;stroke-dasharray:none;stroke-dashoffset:0"
       id="path3408"
       d="m 23.037486,9.7823051 c 0.01055,-0.3465767 0.0089,-0.6932857 0.006,-1.0399272 0.0034,-0.1887972 -7.31e-4,-0.3759255 -0.03384,-0.5628196 -0.02847,-0.1596149 -0.03183,-0.3215573 -0.02285,-0.4823791 -0.01197,-0.090475 0.06196,-0.3111899 0.01922,-0.3886876 -0.0085,-0.015496 -0.02945,-0.029681 -0.05039,-0.030457 -0.03926,-0.00146 -0.07602,0.016248 -0.114018,0.024373 0.03308,-0.0032 0.128158,-0.022955 0.09923,-0.00958 -0.07587,0.035078 -0.163058,0.050845 -0.24438,0.076695 -0.09595,0.0305 -0.192668,0.059523 -0.287438,0.092354 -0.308256,0.106788 -0.606223,0.2330246 -0.910465,0.3470086 -0.223838,0.083954 -0.446371,0.1696123 -0.66406,0.2635792 -0.09182,0.039635 -0.191947,0.075809 -0.267511,0.135191 -0.05124,-0.011308 0.258281,-0.057984 0.184285,-0.047966 -0.16099,0.021799 -0.235301,0.060139 0.05143,-0.027335 0.06851,-0.0209 0.135801,-0.044319 0.203704,-0.066479 0.374001,-0.1311808 0.746521,-0.2668206 1.112041,-0.4130223 0.169821,-0.059082 0.320189,-0.1475464 0.485117,-0.2138893 0.09156,-0.03489 0.173099,-0.081567 0.25143,-0.1327731 0.08947,-0.052534 0.187257,-0.093256 0.289774,-0.1261965 0.227539,-0.060616 0.454829,-0.1353665 0.697823,-0.1363553 0.300124,0.030072 0.585427,0.143666 0.846743,0.2629063 0.238686,0.1220543 0.439767,0.2841198 0.642355,0.4415277 0.120781,0.096479 0.264079,0.1715684 0.40042,0.2526849 0.01934,0.00952 0.03869,0.019032 0.05803,0.028548 0,0 -0.290069,0.082167 -0.290069,0.082167 l 0,0 c -0.01943,-0.010188 -0.03886,-0.020375 -0.0583,-0.030563 C 25.306169,7.9981151 25.16117,7.9241298 25.043093,7.8243078 24.845682,7.6660758 24.645688,7.5064545 24.408022,7.3875394 24.147111,7.2704531 23.862608,7.1566012 23.561309,7.1387206 c -0.174361,0.0074 -0.110953,0.010699 0.119678,-0.047537 0.01983,-0.00501 -0.04048,0.00768 -0.06029,0.012732 -0.05736,0.01461 -0.10997,0.040043 -0.170158,0.047595 -0.102832,0.029721 -0.198654,0.069726 -0.28922,0.1184239 -0.08112,0.05032 -0.158276,0.1037672 -0.252563,0.1385182 -0.170286,0.062543 -0.320335,0.1564351 -0.493863,0.2143859 -0.36729,0.1470206 -0.742975,0.2810292 -1.117515,0.4152863 -0.281983,0.094339 -0.521337,0.1547287 -0.823523,0.2207833 -0.02453,0.00536 -0.145518,0.032755 -0.185071,0.020341 -0.01497,-0.0047 -0.01802,-0.021498 -0.02703,-0.032248 0.07747,-0.06629 0.182225,-0.1022681 0.280856,-0.1443758 0.22172,-0.094657 0.447767,-0.1817062 0.675806,-0.2659969 0.622661,-0.2314128 1.229029,-0.500592 1.900633,-0.6311755 0.04276,-0.00168 0.08721,-0.014842 0.128273,-0.00504 0.119273,0.028471 0.02866,0.363722 0.03268,0.440839 -0.0075,0.1592599 -7.87e-4,0.3190761 0.02668,0.4770979 0.03084,0.1890447 0.03083,0.377831 0.02303,0.5684141 -0.0029,0.3458612 -0.0046,0.6917917 0.006,1.0375872 0,0 -0.298231,0.057955 -0.298231,0.057955 z"
       inkscape:connector-curvature="0" />
  </g>
</svg>
